<?xml version="1.0" encoding="utf-8"?>
<!-- Generator: Adobe Illustrator 21.1.0, SVG Export Plug-In . SVG Version: 6.00 Build 0)  -->
<svg version="1.1" id="Слой_1" xmlns="http://www.w3.org/2000/svg" xmlns:xlink="http://www.w3.org/1999/xlink" x="0px" y="0px"
	 viewBox="0 0 262 62.8" style="enable-background:new 0 0 262 62.8;" xml:space="preserve">
<style type="text/css">
	.st0{fill:#673774;}
</style>
<g>
	<path class="st0" d="M3,49.3l5.3-27.6h10.5c2-0.1,3.9,0.4,5.6,1.4c1.3,0.9,1.8,2.4,1.4,4.7c-0.3,1.8-1.3,3.3-2.8,4.4
		c-1.5,1.1-3.3,1.9-5.1,2.1l-0.1,0.3c1.7,0.1,3.3,0.8,4.6,1.8c1.3,1,1.7,2.6,1.3,4.8c-0.4,2.5-1.9,4.7-4.1,6c-2.2,1.3-4.6,2-7.2,2H3
		z M12.1,33.5c1,0,2,0,3-0.1c0.7-0.1,1.4-0.4,1.9-0.9c1.4-1,2.3-2.6,2.6-4.3c0.4-1.1,0.2-2.3-0.5-3.3c-0.7-0.8-1.8-1.3-2.9-1.2
		c-0.6,0-1.3,0.1-2.1,0.1L12.1,33.5L12.1,33.5z M9.6,46.9h2c1.3,0,2.6-0.5,3.6-1.4c1.2-0.9,2-2.3,2.3-3.8c0.4-2.2,0.1-3.8-0.8-4.7
		c-1.4-1-3.2-1.3-4.9-1.1L9.6,46.9z"/>
	<path class="st0" d="M56.4,42.7c-1.8,2.3-4.1,4.1-6.7,5.4c-2.8,1.3-5.8,2-8.8,2c-2.6,0.1-5.2-0.5-7.6-1.7c-2-1.1-3.5-2.9-4.3-5
		c-0.8-2.5-0.9-5.2-0.3-7.7c0.4-2,1.2-4,2.2-5.7c1.1-1.8,2.4-3.4,4-4.7c1.7-1.3,3.7-2.4,5.7-3.1c2.2-0.7,4.6-1.1,6.9-1.1
		c2.9-0.2,5.9,0.6,8.3,2.3c1.9,1.3,3.2,3.3,3.7,5.5c0.5,2.2,0.6,4.5,0.1,6.8C59.3,38.1,58.1,40.6,56.4,42.7L56.4,42.7z M41.6,24.8
		c-1.7,1.2-3,2.7-3.9,4.5c-1.2,2.4-2,4.9-2.5,7.4c-0.3,1.7-0.4,3.5-0.1,5.3c0.2,1.5,0.9,2.9,2,4c1.2,1.1,2.9,1.6,4.5,1.6
		c1.9,0,3.8-0.6,5.4-1.7c1.7-1.3,3-3,4-4.8c1-2,1.8-4.2,2.2-6.4c0.3-1.8,0.4-3.6,0.1-5.3c-0.2-1.6-0.9-3.1-2-4.2
		c-1.2-1.2-2.8-1.8-4.4-1.7C45,23.3,43.2,23.8,41.6,24.8L41.6,24.8z"/>
	<path class="st0" d="M66.8,21.6h8.6c3.4,0,5.5,0.3,6.5,0.8c2,1.1,3,3.5,2.4,5.7C84,30,83.1,31.7,81.7,33c-1.4,1.3-3.2,2.2-5.1,2.6
		c0.7,1.8,2.3,5.6,5,11.4l1.1,2.5c-2-0.1-3.2-0.2-3.6-0.2s-1.6,0-3.7,0.2l-3.2-8.5c-0.2-0.4-0.3-1-0.8-2s-0.7-1.7-1-2.5H70l-2.5,13
		c-1.7-0.1-2.7-0.2-3-0.2s-1.3,0-3.1,0.2L66.8,21.6L66.8,21.6z M70.4,34.7c4.3,0.4,6.7-1.4,7.5-5.7c0.1-0.8,0.1-1.4,0.2-2
		c0-1.5-0.5-2.4-1.4-2.6c-1.4-0.3-2.8-0.4-4.2-0.4L70.4,34.7L70.4,34.7z"/>
	<path class="st0" d="M188.6,21.6c1.7,0.1,2.8,0.1,3,0.2c0.3,0.1,1.4-0.1,3.1-0.2l-5.4,27.8l-3.1-0.2c-0.3,0-1.3,0-3.1,0.2
		L188.6,21.6L188.6,21.6z"/>
	<path class="st0" d="M165,49.5c-1.6-0.1-2.6-0.2-3-0.2c-0.3,0-1.3,0-3.1,0.2l5.5-27.8h10c5.7,0,8.2,2.3,7.4,6.8
		c-0.3,2-1.2,3.9-2.6,5.4c-1.3,1.3-3,2.2-4.8,2.7c-2.3,0.5-4.6,0.7-6.9,0.7L165,49.5L165,49.5z M167.9,35c0.9,0,1.9-0.1,2.8-0.3
		c2.5-0.6,4-2.5,4.7-5.5c0.3-1.3,0.2-2.7-0.3-3.9c-0.5-0.9-1.4-1.5-2.4-1.4h-2.5L167.9,35L167.9,35z"/>
	<path class="st0" d="M203.9,46.4c2.7,0,5.7-0.2,9.4-0.5c-0.3,0.5-0.5,1.1-0.6,1.7c0,0.2,0,0.4-0.1,0.6v0.6c0,0.2,0,0.4,0,0.5h-15.4
		l5.3-27.6c1.7,0.1,2.7,0.1,3,0.2c0.3,0.1,1.4-0.1,3.1-0.2L203.9,46.4L203.9,46.4z"/>
	<path class="st0" d="M55.2,57.1l0.9,5.5h-1.3l-0.1-1h-2l-0.6,1h-1.4l3.2-5.5H55.2z M54.5,60.7l-0.3-2.1l-1.2,2.1H54.5z"/>
	<polygon class="st0" points="60.5,57.1 59.3,62.7 58,62.7 59.2,57.1 	"/>
	<path class="st0" d="M63.1,57.1h2.7c0.4,0,0.8,0,1.1,0.2c0.4,0.2,0.6,0.7,0.6,1.2c0,0.5-0.2,0.9-0.5,1.2c-0.2,0.2-0.5,0.3-0.7,0.4
		l0,0c0.3,0.1,0.6,0.4,0.5,0.7c0,0.2,0,0.5-0.1,0.7c0,0.2-0.1,0.4-0.1,0.7c0,0.1,0,0.3,0.1,0.4h-1.4c0-0.1,0-0.3,0-0.4
		c0-0.2,0-0.4,0.1-0.6c0-0.2,0.1-0.3,0.1-0.5c0-0.3-0.2-0.5-0.7-0.5h-1l-0.4,2H62L63.1,57.1L63.1,57.1z M63.9,59.6h1.2
		c0.3,0,0.5-0.1,0.8-0.2c0.1-0.2,0.2-0.3,0.2-0.5c0-0.4-0.3-0.6-0.8-0.6h-1.1L63.9,59.6L63.9,59.6z"/>
	<path class="st0" d="M72.8,57.1c0.4,0,0.8,0.1,1.1,0.3c0.4,0.3,0.6,0.7,0.6,1.2c0,0.3-0.1,0.6-0.2,0.9c-0.1,0.3-0.4,0.6-0.6,0.8
		c-0.2,0.2-0.5,0.3-0.8,0.4c-0.3,0.1-0.6,0.1-0.9,0.1h-1.2l-0.4,1.9H69l1.1-5.5L72.8,57.1z M71,59.7h1c0.2,0,0.4,0,0.6-0.1
		c0.4-0.1,0.6-0.6,0.4-1c0-0.1-0.1-0.2-0.2-0.3c-0.2-0.1-0.4-0.1-0.5-0.1h-1.1L71,59.7L71,59.7z"/>
	<path class="st0" d="M76.6,62.1c-0.3-0.5-0.5-1-0.5-1.6c0-0.5,0.1-0.9,0.2-1.3c0.2-0.4,0.4-0.9,0.7-1.2c0.6-0.7,1.5-1,2.4-1
		c0.4,0,0.7,0,1,0.2c0.3,0.1,0.5,0.3,0.7,0.5c0.2,0.2,0.3,0.4,0.4,0.7c0.1,0.3,0.2,0.6,0.2,0.9c0,0.5-0.1,0.9-0.2,1.3
		c-0.1,0.5-0.4,0.9-0.7,1.2c-0.2,0.2-0.4,0.4-0.7,0.6c-0.2,0.1-0.5,0.2-0.8,0.3c-0.3,0.1-0.6,0.1-0.9,0.1
		C77.8,62.9,77.1,62.6,76.6,62.1L76.6,62.1z M80.1,60.9c0.2-0.4,0.4-0.9,0.4-1.4c0-0.9-0.4-1.4-1.2-1.4c-0.6-0.1-1.2,0.3-1.4,0.8
		c-0.2,0.4-0.4,0.9-0.4,1.4c0,0.6,0.1,1,0.4,1.1c0.2,0.2,0.5,0.2,0.8,0.2C79.2,61.7,79.8,61.4,80.1,60.9L80.1,60.9z"/>
	<path class="st0" d="M84.8,57.1h2.7c0.3,0,0.7,0.1,1,0.2c0.4,0.2,0.6,0.7,0.6,1.2c0,0.5-0.2,0.9-0.5,1.2c-0.2,0.2-0.5,0.3-0.7,0.4
		l0,0c0.3,0.1,0.6,0.4,0.5,0.7c0,0.2,0,0.5-0.1,0.7c0,0.2-0.1,0.4-0.1,0.7c0,0.1,0,0.3,0.1,0.4H87c0-0.1,0-0.3,0-0.4
		c0-0.2,0-0.4,0-0.6c0-0.2,0.1-0.3,0.1-0.5c0-0.3-0.3-0.5-0.7-0.5h-1l-0.4,2h-1.3L84.8,57.1L84.8,57.1z M85.6,59.6h1.2
		c0.3,0,0.5-0.1,0.8-0.2c0.1-0.2,0.2-0.3,0.2-0.5c0-0.4-0.3-0.6-0.8-0.6h-1.1L85.6,59.6L85.6,59.6z"/>
	<polygon class="st0" points="91.2,58.2 91.4,57.1 96,57.1 95.7,58.2 94.1,58.2 93.2,62.7 91.9,62.7 92.8,58.2 	"/>
	<path class="st0" d="M12.4,58.2v3.4H49l1.8-3.4H12.4z"/>
	<path class="st0" d="M38.4,61.7v-3.4c-12.6,0-25.1,0-37.7,0c-0.2,1.1-0.5,2.3-0.7,3.4H38.4z"/>
	<polygon class="st0" points="262,11.4 262,9.9 227.3,7.8 222.2,1 218.4,0 219.7,8.3 217.7,8.3 217.4,11.1 	"/>
	<g>
		<path class="st0" d="M91.5,49.5c0.9-4.2,1.7-8.4,2.6-12.6l-5.9-15.4c1.3,0.1,2.7,0.2,4.2,0.1c0.6,0,1.2-0.1,1.8-0.1
			c1.4,3.6,2.8,7.2,4.2,10.8l8.4-10.8c1,0.1,2.1,0.2,3.3,0.1c0.6,0,1.2-0.1,1.7-0.1c-4,5.1-7.9,10.1-11.9,15.2
			c-0.8,4.3-1.7,8.5-2.5,12.8c-0.9-0.1-1.8-0.1-2.8-0.1C93.5,49.3,92.4,49.4,91.5,49.5z"/>
	</g>
	<path class="st0" d="M123.4,22.9c1.1-5.8,5.6-11.8,18.3-11.8h0.1h71.5V8.7c-25.7-0.3-70.3-0.7-75.5-0.7c-14.1,0-19.8,6.9-21.2,11.8
		c-1.4,4.9-0.4,11.8,14.4,17.6c10.7,4.1,10.8,8.9,9.2,13.4c-1.9,5.3-10.7,7.6-15.6,7.6H98L97,61.7h27.6c22.9-0.9,25.4-12.1,24-16.8
		C145.8,35.3,121.4,34.1,123.4,22.9z"/>
</g>
</svg>
