<?xml version="1.0" encoding="UTF-8"?> <svg xmlns="http://www.w3.org/2000/svg" width="208" height="48" viewBox="0 0 208 48" fill="none"><path fill-rule="evenodd" clip-rule="evenodd" d="M11.7866 41.6885C11.9582 41.6885 15.195 41.6885 15.4334 41.6885V27.152C16.0715 28.3451 20.1458 35.4319 20.9039 36.6263C21.3185 35.9556 25.3781 28.7322 25.8272 27.7917C26.0538 28.2355 25.8967 28.796 26.6148 30.2019C27.7532 32.429 29.4825 33.2957 31.7284 33.8296C34.336 34.4497 36.3397 33.829 37.4974 33.0033C37.4974 35.9234 36.8583 38.3974 33.4857 38.3974V41.6885C38.9407 41.6885 41.1442 38.0152 41.1442 33.0947C41.1442 32.0296 41.1442 21.902 41.1442 21.4835H37.4974C37.4974 23.9003 37.8349 27.4368 36.6142 29.1006C36.2954 29.5349 35.9503 29.8316 35.4877 30.0737C34.5354 30.572 32.9303 30.6723 31.9639 30.2326C30.4579 29.547 29.5653 27.8786 29.5653 26.2378V21.4835H25.736C25.0547 22.6595 21.6118 29.1562 20.9039 30.1691C20.3761 29.3763 16.5236 22.4977 16.0715 21.4835H11.7866V41.6885Z" fill="#254AA5"></path><path fill-rule="evenodd" clip-rule="evenodd" d="M0.66333 41.6885H4.31019C4.31019 41.327 4.31019 34.0115 4.31019 33.1858H9.78066C9.78066 32.9826 9.78066 30.2086 9.78066 29.8033H4.31019V21.4835H0.66333C0.66333 23.2799 0.66333 41.6651 0.66333 41.6885Z" fill="#254AA5"></path><path fill-rule="evenodd" clip-rule="evenodd" d="M25.9175 41.6885H29.5654V35.1059C28.5595 35.0835 26.5939 33.8635 25.9185 32.9118C25.9175 33.4536 25.9175 41.1122 25.9175 41.6885Z" fill="#254AA5"></path><path fill-rule="evenodd" clip-rule="evenodd" d="M0.66333 44.0655H41.1443V46.3513H0.66333V44.0655Z" fill="#254AA5"></path><path fill-rule="evenodd" clip-rule="evenodd" d="M0.66333 47.174H41.1443V46.8997H0.66333V47.174Z" fill="#254AA5"></path><path fill-rule="evenodd" clip-rule="evenodd" d="M0.66333 19.4079H41.1443V17.122H0.66333V19.4079Z" fill="#254AA5"></path><path fill-rule="evenodd" clip-rule="evenodd" d="M0.66333 16.2994H41.1443V16.5737H0.66333V16.2994Z" fill="#254AA5"></path><path fill-rule="evenodd" clip-rule="evenodd" d="M20.9039 0.664818L41.1443 13.5296H0.66333L20.9039 0.664818ZM20.9039 5.16183L28.4732 9.97303H13.3343L20.9039 5.16183Z" fill="#254AA5"></path><path d="M18.8693 9.44935V7.42695H18.5384L18.0476 7.67865L18.1333 7.96185L18.48 7.77996H18.4852V9.44935H18.8693Z" fill="#254AA5"></path><path d="M19.7926 8.39377C19.5898 8.49575 19.4429 8.67537 19.4429 8.92463C19.4429 9.21381 19.6725 9.47865 20.1019 9.47865C20.5021 9.47865 20.7849 9.24042 20.7849 8.87891C20.7849 8.62695 20.6219 8.45297 20.4247 8.36185V8.35655C20.63 8.24379 20.7209 8.06417 20.7209 7.90097C20.7209 7.6464 20.5312 7.39242 20.1311 7.39242C19.7817 7.39242 19.5068 7.60623 19.5068 7.94114C19.5068 8.11284 19.6059 8.28126 19.7926 8.38619V8.39377ZM20.1127 9.20825C19.9418 9.20825 19.8378 9.05853 19.8378 8.88716C19.8378 8.72632 19.9287 8.58417 20.0805 8.52766C20.2567 8.58686 20.3899 8.71284 20.3899 8.91116C20.3899 9.06939 20.2911 9.20825 20.1127 9.20825ZM20.1176 7.65693C20.2859 7.65693 20.3525 7.79605 20.3525 7.9355C20.3525 8.072 20.2593 8.19806 20.1471 8.24379C19.9897 8.18484 19.8778 8.07731 19.8778 7.92236C19.8778 7.79343 19.9444 7.65693 20.1176 7.65693Z" fill="#254AA5"></path><path d="M22.1134 8.94905H22.3454V8.64935H22.1134V7.42695H21.6677L20.9344 8.69213V8.94905H21.7477V9.44935H22.1134V8.94905ZM21.2865 8.64404L21.5827 8.13583C21.6437 8.02072 21.6919 7.90821 21.7532 7.77996H21.7637C21.7559 7.9003 21.7477 8.02897 21.7477 8.1467V8.64935H21.2865V8.64404Z" fill="#254AA5"></path><path d="M23.4472 9.44935V7.42695H23.1163L22.6255 7.67865L22.7108 7.96185L23.0576 7.77996H23.0628V9.44935H23.4472Z" fill="#254AA5"></path><path d="M49.3679 18.551V10.1099H50.4846V13.5875H54.8348V10.1099H55.9518V18.551H54.8348V14.5779H50.4846V18.551H49.3679Z" fill="#254AA5"></path><path d="M57.302 18.551L60.5313 10.1099H61.7558L65.1833 18.551H63.9154L62.9414 15.9928H59.3965L58.4836 18.551H57.302ZM59.724 15.0852H62.5927L61.7149 12.7448C61.4504 12.0335 61.2504 11.4461 61.1112 10.9822C60.9957 11.5326 60.841 12.0727 60.6471 12.6072L59.724 15.0852Z" fill="#254AA5"></path><path d="M66.5039 10.1099H67.6209V17.5608H71.9944V10.1099H73.1114V17.5608H73.8757V20.897H72.888V18.551H66.5039V10.1099Z" fill="#254AA5"></path><path d="M75.5725 18.551V10.1099H76.6894V18.551H75.5725Z" fill="#254AA5"></path><path d="M78.5159 14.4424C78.5159 13.0434 78.8918 11.947 79.6424 11.1553C80.3926 10.3631 81.361 9.9684 82.5482 9.9684C83.3264 9.9684 84.0262 10.1549 84.651 10.5266C85.2741 10.8977 85.7503 11.4164 86.0769 12.0825C86.4044 12.7467 86.569 13.5013 86.569 14.3441C86.569 15.199 86.3969 15.9651 86.0517 16.6395C85.7066 17.3151 85.2195 17.826 84.588 18.1717C83.9552 18.5197 83.2735 18.6928 82.5423 18.6928C81.7491 18.6928 81.0415 18.4999 80.4162 18.1168C79.7933 17.7339 79.3193 17.2108 78.9978 16.547C78.6763 15.8849 78.5159 15.1832 78.5159 14.4424ZM79.668 14.4621C79.668 15.478 79.9402 16.2776 80.4848 16.8612C81.0297 17.445 81.7134 17.7375 82.5367 17.7375C83.3752 17.7375 84.0631 17.4428 84.6056 16.8533C85.1464 16.2641 85.4169 15.4269 85.4169 14.342C85.4169 13.6566 85.3018 13.0572 85.07 12.5463C84.8391 12.0355 84.4998 11.6385 84.0556 11.3575C83.6084 11.0763 83.1089 10.9351 82.5541 10.9351C81.7665 10.9351 81.0887 11.2062 80.5203 11.7487C79.9517 12.2908 79.668 13.1947 79.668 14.4621Z" fill="#254AA5"></path><path d="M88.462 18.551V10.1099H89.579V13.5875H93.9291V10.1099H95.046V18.551H93.9291V14.5779H89.579V18.551H88.462Z" fill="#254AA5"></path><path d="M96.3964 18.551L99.6254 10.1099H100.85L104.278 18.551H103.01L102.036 15.9928H98.4908L97.578 18.551H96.3964ZM98.8183 15.0852H101.687L100.809 12.7448C100.544 12.0335 100.345 11.4461 100.206 10.9822C100.09 11.5326 99.9352 12.0727 99.7412 12.6072L98.8183 15.0852Z" fill="#254AA5"></path><path d="M106.043 10.1099H111.299V18.551H110.182V11.0999H107.16V15.4483C107.16 16.3329 107.119 16.9793 107.037 17.3898C106.954 17.8026 106.78 18.1207 106.515 18.3506C106.251 18.5786 105.914 18.6928 105.508 18.6928C105.261 18.6928 104.965 18.6414 104.62 18.5394L104.82 17.549C105.003 17.6434 105.16 17.6904 105.289 17.6904C105.539 17.6904 105.73 17.596 105.855 17.4055C105.98 17.2151 106.043 16.7671 106.043 16.0595V10.1099Z" fill="#254AA5"></path><path d="M113.595 10.1099H114.711V13.7056H116.716C117.653 13.7056 118.331 13.8158 118.752 14.0339C119.172 14.254 119.474 14.5526 119.658 14.9277C119.84 15.3053 119.932 15.6941 119.932 16.0928C119.932 16.747 119.711 17.321 119.266 17.8122C118.823 18.3056 117.998 18.551 116.789 18.551H113.595V10.1099ZM114.711 17.596H116.746C117.571 17.596 118.108 17.4487 118.359 17.1562C118.607 16.8632 118.733 16.5075 118.733 16.0928C118.733 15.7569 118.642 15.4701 118.46 15.2342C118.281 14.9983 118.037 14.8451 117.736 14.7763C117.434 14.7075 116.923 14.6723 116.201 14.6723H114.711V17.596Z" fill="#254AA5"></path><path d="M121.723 18.551V10.1099H122.84V13.5875H127.19V10.1099H128.307V18.551H127.19V14.5779H122.84V18.551H121.723Z" fill="#254AA5"></path><path d="M130.604 10.1099H131.615V16.7944L136.096 10.1099H137.199V18.551H136.188V11.8842L131.718 18.551H130.604V10.1099Z" fill="#254AA5"></path><path d="M139.467 10.1099H140.478V16.7944L144.959 10.1099H146.063V18.551H145.051V11.8842L140.581 18.551H139.467V10.1099ZM143.664 8.08228H144.37C144.312 8.56742 144.136 8.94081 143.842 9.20001C143.548 9.46148 143.159 9.59117 142.671 9.59117C142.18 9.59117 141.789 9.46148 141.497 9.20397C141.204 8.94443 141.028 8.57138 140.972 8.08228H141.677C141.73 8.34738 141.838 8.54569 141.996 8.67538C142.155 8.80725 142.37 8.87201 142.639 8.87201C142.95 8.87201 143.185 8.80885 143.344 8.68127C143.503 8.55563 143.61 8.35529 143.664 8.08228Z" fill="#254AA5"></path><path d="M49.2975 30.5365V22.0951H50.9668L52.9577 28.0704C53.1418 28.6266 53.2753 29.0431 53.3596 29.3204C53.4554 29.0138 53.6063 28.5619 53.81 27.9665L55.8364 22.0951H57.3277V30.5365H56.2575V23.4747L53.8005 30.5365H52.7973L50.3675 23.3451V30.5365H49.2975Z" fill="#254AA5"></path><path d="M59.5518 30.5365V22.0951H65.6301V23.0856H60.6688V25.6792H65.3126V26.6694H60.6688V29.546H65.8299V30.5365H59.5518Z" fill="#254AA5"></path><path d="M68.5477 22.0951H73.6737V29.546H74.4263V32.5053H73.4385V30.5365H67.8661V32.5053H66.8783V29.546H67.5248C68.2069 28.5204 68.5477 26.4477 68.5477 23.3293V22.0951ZM72.557 23.0856H69.6178V23.5177C69.6178 24.2371 69.5529 25.2217 69.4236 26.4691C69.2963 27.7171 69.0418 28.7427 68.6652 29.546H72.557V23.0856Z" fill="#254AA5"></path><path d="M76.1819 22.0951H77.1929V28.78L81.6744 22.0951H82.7775V30.5365H81.7665V23.8697L77.2966 30.5365H76.1819V22.0951Z" fill="#254AA5"></path><path d="M91.0292 30.5365H89.9123V27.1375C88.913 27.5085 88.0371 27.6954 87.2863 27.6954C86.7001 27.6954 86.1836 27.5579 85.7369 27.2829C85.2876 27.0095 84.9878 26.6599 84.8366 26.2371C84.6863 25.8152 84.6099 25.2628 84.6099 24.5789V22.0951H85.7268V24.475C85.7268 25.3964 85.8931 26.0036 86.2281 26.2944C86.5632 26.5832 86.9672 26.7286 87.4374 26.7286C88.2235 26.7286 89.0482 26.5539 89.9123 26.204V22.0951H91.0292V30.5365Z" fill="#254AA5"></path><path d="M93.3176 30.5365V22.0951H94.4346V25.5731H98.7847V22.0951H99.9016V30.5365H98.7847V26.5635H94.4346V30.5365H93.3176Z" fill="#254AA5"></path><path d="M102.198 22.0951H103.21V28.78L107.692 22.0951H108.794V30.5365H107.783V23.8697L103.314 30.5365H102.198V22.0951Z" fill="#254AA5"></path><path d="M111.062 22.0951H112.073V28.78L116.554 22.0951H117.657V30.5365H116.646V23.8697L112.176 30.5365H111.062V22.0951ZM115.259 20.0678H115.964C115.907 20.5529 115.731 20.9263 115.437 21.1855C115.143 21.4471 114.753 21.5767 114.265 21.5767C113.775 21.5767 113.384 21.4471 113.091 21.1895C112.799 20.9299 112.623 20.5566 112.567 20.0678H113.272C113.325 20.3329 113.432 20.5313 113.591 20.6609C113.75 20.7924 113.966 20.8576 114.234 20.8576C114.545 20.8576 114.78 20.7944 114.939 20.6668C115.098 20.5411 115.206 20.3408 115.259 20.0678Z" fill="#254AA5"></path><path d="M122.315 22.0951H123.436L126.193 27.2845L128.59 22.0951H129.687L126.534 28.6621C126.14 29.4835 125.817 30.0217 125.564 30.2754C125.311 30.5286 124.951 30.6546 124.48 30.6546C124.194 30.6546 123.843 30.5875 123.426 30.454V29.499C123.724 29.672 124.039 29.7586 124.372 29.7586C124.643 29.7586 124.876 29.6701 125.074 29.4951C125.27 29.3204 125.488 28.9213 125.724 28.2983L122.315 22.0951Z" fill="#254AA5"></path><path d="M131.096 30.5365V22.0951H132.213V25.5731H136.562V22.0951H137.68V30.5365H136.562V26.5635H132.213V30.5365H131.096Z" fill="#254AA5"></path><path d="M139.935 30.5365V22.0951H141.052V30.5365H139.935Z" fill="#254AA5"></path><path d="M143.172 30.5365V22.0951H146.33C146.974 22.0951 147.488 22.1796 147.879 22.351C148.267 22.5217 148.57 22.7852 148.79 23.1408C149.011 23.4944 149.121 23.8658 149.121 24.2546C149.121 24.6142 149.024 24.9543 148.829 25.2727C148.636 25.5908 148.342 25.8483 147.947 26.0447C148.457 26.1941 148.849 26.4493 149.121 26.8112C149.396 27.1707 149.532 27.5971 149.532 28.0885C149.532 28.4852 149.448 28.8526 149.282 29.1928C149.115 29.5325 148.909 29.7938 148.664 29.9786C148.42 30.1615 148.112 30.3006 147.744 30.395C147.373 30.4894 146.921 30.5365 146.383 30.5365H143.172ZM144.289 25.644H146.109C146.603 25.644 146.958 25.6105 147.172 25.5457C147.456 25.4612 147.669 25.3197 147.813 25.123C147.955 24.9267 148.028 24.6813 148.028 24.3845C148.028 24.1033 147.961 23.8559 147.826 23.6438C147.692 23.4296 147.5 23.2819 147.252 23.2036C147.003 23.125 146.576 23.0856 145.973 23.0856H144.289V25.644ZM144.289 29.546H146.386C146.746 29.546 146.999 29.5325 147.146 29.5049C147.4 29.4599 147.616 29.3832 147.788 29.275C147.961 29.1671 148.102 29.0099 148.214 28.8036C148.326 28.5974 148.38 28.3592 148.38 28.0904C148.38 27.774 148.3 27.5006 148.138 27.2671C147.977 27.0333 147.754 26.8701 147.467 26.7757C147.183 26.6816 146.771 26.6342 146.236 26.6342H144.289V29.546Z" fill="#254AA5"></path><path d="M151.499 30.5365V22.0951H157.577V23.0856H152.615V25.6792H157.259V26.6694H152.615V29.546H157.776V30.5365H151.499Z" fill="#254AA5"></path><path d="M159.73 30.5365V22.0951H162.908C163.466 22.0951 163.894 22.123 164.19 22.176C164.603 22.2447 164.95 22.3763 165.231 22.5688C165.51 22.7635 165.736 23.0345 165.907 23.3822C166.076 23.7299 166.161 24.1132 166.161 24.5319C166.161 25.2471 165.934 25.854 165.477 26.3493C165.022 26.8464 164.198 27.0941 163.006 27.0941H160.847V30.5365H159.73ZM160.847 26.1039H163.022C163.743 26.1039 164.252 25.9701 164.556 25.701C164.858 25.4319 165.009 25.0546 165.009 24.5651C165.009 24.2135 164.921 23.9108 164.742 23.6595C164.564 23.4079 164.329 23.2408 164.039 23.1602C163.851 23.1112 163.504 23.0856 163 23.0856H160.847V26.1039Z" fill="#254AA5"></path><path d="M173.436 27.5753L174.553 27.8582C174.32 28.776 173.901 29.4737 173.295 29.9549C172.69 30.4362 171.949 30.6783 171.073 30.6783C170.168 30.6783 169.431 30.4934 168.863 30.122C168.294 29.7526 167.863 29.2161 167.568 28.5148C167.271 27.8112 167.123 27.0585 167.123 26.253C167.123 25.3747 167.29 24.6086 167.624 23.9539C167.959 23.2997 168.436 22.8026 169.053 22.4628C169.67 22.123 170.35 21.9539 171.091 21.9539C171.934 21.9539 172.641 22.1681 173.213 22.5983C173.787 23.0286 174.187 23.6319 174.412 24.4099L173.319 24.6694C173.125 24.0563 172.841 23.6083 172.471 23.3293C172.1 23.0483 171.633 22.9085 171.071 22.9085C170.427 22.9085 169.886 23.0642 169.453 23.3743C169.02 23.6849 168.714 24.1033 168.54 24.6263C168.363 25.1507 168.275 25.6911 168.275 26.2473C168.275 26.9645 168.379 27.5912 168.587 28.1256C168.794 28.6621 169.117 29.0609 169.557 29.326C169.996 29.5914 170.47 29.723 170.981 29.723C171.604 29.723 172.13 29.5424 172.56 29.1826C172.991 28.8214 173.284 28.2868 173.436 27.5753Z" fill="#254AA5"></path><path d="M176.368 22.0951H177.379V28.78L181.86 22.0951H182.964V30.5365H181.953V23.8697L177.482 30.5365H176.368V22.0951Z" fill="#254AA5"></path><path d="M187.348 30.5365V23.0856H184.573V22.0951H191.238V23.0856H188.464V30.5365H187.348Z" fill="#254AA5"></path><path d="M192.825 30.5365V22.0951H198.905V23.0856H193.942V25.6792H198.586V26.6694H193.942V29.546H199.104V30.5365H192.825Z" fill="#254AA5"></path><path d="M203.198 30.5365V23.0856H200.423V22.0951H207.089V23.0856H204.315V30.5365H203.198Z" fill="#254AA5"></path><path d="M48.9862 35.2595V34.0806H50.0205V35.2595H48.9862ZM48.9862 42.522V36.4033H50.0205V42.522H48.9862Z" fill="#254AA5"></path><path d="M51.6334 36.4033H53.2244L54.8371 41.3L56.6223 36.4033H58.0998V42.522H57.0652V37.596L55.2681 42.522H54.3433L52.6444 37.3602V42.522H51.6334V36.4033Z" fill="#254AA5"></path><path d="M63.8429 40.5414L64.913 40.6829C64.7463 41.3059 64.4347 41.7911 63.9803 42.1349C63.5256 42.4789 62.9457 42.6516 62.2384 42.6516C61.3487 42.6516 60.6431 42.3766 60.1219 41.8266C59.6006 41.2783 59.3401 40.5059 59.3401 39.5138C59.3401 38.4882 59.6025 37.6904 60.1297 37.1244C60.6569 36.5565 61.3409 36.2737 62.1814 36.2737C62.9945 36.2737 63.6588 36.5506 64.1745 37.1069C64.6896 37.6628 64.9484 38.445 64.9484 39.4526C64.9484 39.5138 64.9464 39.6059 64.9424 39.728H60.3981C60.4374 40.398 60.6254 40.9128 60.9666 41.2684C61.3058 41.624 61.7309 41.803 62.2384 41.803C62.6163 41.803 62.9398 41.7026 63.2062 41.5023C63.4748 41.3016 63.6863 40.9816 63.8429 40.5414ZM60.4571 38.8792H63.855C63.8097 38.3641 63.6785 37.9793 63.465 37.7217C63.1375 37.3227 62.7104 37.1224 62.1872 37.1224C61.7132 37.1224 61.3153 37.2816 60.9921 37.6C60.6707 37.9184 60.4925 38.3448 60.4571 38.8792Z" fill="#254AA5"></path><path d="M66.2202 36.4033H67.2549V38.9496H70.1237V36.4033H71.1583V42.522H70.1237V39.8105H67.2549V42.522H66.2202V36.4033Z" fill="#254AA5"></path><path d="M72.7123 35.2595V34.0806H73.7466V35.2595H72.7123ZM72.7123 42.522V36.4033H73.7466V42.522H72.7123Z" fill="#254AA5"></path><path d="M78.3792 38.4135C78.3792 37.0145 78.7555 35.9181 79.506 35.1263C80.2563 34.3342 81.2243 33.9394 82.4118 33.9394C83.1896 33.9394 83.8894 34.126 84.5142 34.4973C85.1373 34.8687 85.6135 35.3875 85.941 36.0536C86.2685 36.7177 86.4322 37.4723 86.4322 38.3151C86.4322 39.1698 86.2601 39.9362 85.9149 40.6102C85.5706 41.2862 85.0827 41.797 84.452 42.1428C83.8188 42.4905 83.1368 42.6635 82.406 42.6635C81.6123 42.6635 80.9048 42.471 80.2799 42.0878C79.6569 41.7046 79.1826 41.1819 78.8611 40.5178C78.5399 39.8556 78.3792 39.1543 78.3792 38.4135ZM79.5313 38.4329C79.5313 39.449 79.8035 40.2487 80.3485 40.8322C80.8933 41.4158 81.577 41.7086 82.4 41.7086C83.2389 41.7086 83.9264 41.4138 84.4697 40.8243C85.0096 40.2349 85.2809 39.3981 85.2809 38.3132C85.2809 37.6273 85.165 37.0283 84.9341 36.5175C84.7023 36.0062 84.3638 35.6095 83.9185 35.3282C83.4717 35.0473 82.9721 34.9063 82.4177 34.9063C81.6301 34.9063 80.952 35.1773 80.3836 35.7197C79.8154 36.2618 79.5313 37.1658 79.5313 38.4329Z" fill="#254AA5"></path><path d="M88.0295 42.522V41.3431H89.2052V42.522H88.0295Z" fill="#254AA5"></path><path d="M90.7908 38.4135C90.7908 37.0145 91.167 35.9181 91.9178 35.1263C92.6677 34.3342 93.636 33.9394 94.8235 33.9394C95.6011 33.9394 96.3006 34.126 96.9255 34.4973C97.5494 34.8687 98.0247 35.3875 98.3523 36.0536C98.6798 36.7177 98.8444 37.4723 98.8444 38.3151C98.8444 39.1698 98.6722 39.9362 98.3271 40.6102C97.9819 41.2862 97.494 41.797 96.8633 42.1428C96.2301 42.4905 95.5482 42.6635 94.8176 42.6635C94.024 42.6635 93.316 42.471 92.6912 42.0878C92.0681 41.7046 91.5945 41.1819 91.2728 40.5178C90.9512 39.8556 90.7908 39.1543 90.7908 38.4135ZM91.943 38.4329C91.943 39.449 92.2151 40.2487 92.7601 40.8322C93.3051 41.4158 93.9887 41.7086 94.8117 41.7086C95.6506 41.7086 96.3376 41.4138 96.8809 40.8243C97.4218 40.2349 97.6922 39.3981 97.6922 38.3132C97.6922 37.6273 97.5763 37.0283 97.3454 36.5175C97.1144 36.0062 96.7751 35.6095 96.33 35.3282C95.8833 35.0473 95.3836 34.9063 94.8293 34.9063C94.0416 34.9063 93.3639 35.1773 92.7954 35.7197C92.2268 36.2618 91.943 37.1658 91.943 38.4329Z" fill="#254AA5"></path><path d="M100.441 42.522V41.3431H101.617V42.522H100.441Z" fill="#254AA5"></path><path d="M107.062 34.0806H112.529V35.0711H108.179V37.6766H110.19C110.932 37.6766 111.522 37.747 111.961 37.8908C112.4 38.0322 112.751 38.2997 113.015 38.6944C113.279 39.0872 113.411 39.5451 113.411 40.0678C113.411 40.4944 113.317 40.8931 113.127 41.2628C112.937 41.6339 112.655 41.9365 112.278 42.1704C111.904 42.4043 111.263 42.522 110.36 42.522H107.062V34.0806ZM108.179 41.5671H110.407C111.009 41.5671 111.46 41.4454 111.761 41.1997C112.061 40.9539 112.212 40.5865 112.212 40.0974C112.212 39.7477 112.126 39.4569 111.953 39.223C111.78 38.9891 111.542 38.8338 111.236 38.7572C110.928 38.6806 110.405 38.6434 109.667 38.6434H108.179V41.5671Z" fill="#254AA5"></path><path d="M114.26 38.4135C114.26 37.0145 114.636 35.9181 115.387 35.1263C116.136 34.3342 117.105 33.9394 118.292 33.9394C119.071 33.9394 119.769 34.126 120.395 34.4973C121.018 34.8687 121.493 35.3875 121.821 36.0536C122.149 36.7177 122.313 37.4723 122.313 38.3151C122.313 39.1698 122.141 39.9362 121.796 40.6102C121.451 41.2862 120.963 41.797 120.332 42.1428C119.699 42.4905 119.017 42.6635 118.286 42.6635C117.493 42.6635 116.786 42.471 116.16 42.0878C115.538 41.7046 115.063 41.1819 114.742 40.5178C114.42 39.8556 114.26 39.1543 114.26 38.4135ZM115.412 38.4329C115.412 39.449 115.685 40.2487 116.229 40.8322C116.774 41.4158 117.457 41.7086 118.28 41.7086C119.119 41.7086 119.807 41.4138 120.35 40.8243C120.891 40.2349 121.161 39.3981 121.161 38.3132C121.161 37.6273 121.045 37.0283 120.814 36.5175C120.583 36.0062 120.244 35.6095 119.8 35.3282C119.352 35.0473 118.852 34.9063 118.298 34.9063C117.51 34.9063 116.833 35.1773 116.264 35.7197C115.696 36.2618 115.412 37.1658 115.412 38.4329Z" fill="#254AA5"></path><path d="M124.183 34.0806H129.626V35.0711H125.3V42.522H124.183V34.0806Z" fill="#254AA5"></path><path d="M129.524 38.4135C129.524 37.0145 129.901 35.9181 130.651 35.1263C131.401 34.3342 132.37 33.9394 133.557 33.9394C134.335 33.9394 135.034 34.126 135.659 34.4973C136.282 34.8687 136.758 35.3875 137.086 36.0536C137.413 36.7177 137.577 37.4723 137.577 38.3151C137.577 39.1698 137.405 39.9362 137.061 40.6102C136.716 41.2862 136.228 41.797 135.596 42.1428C134.964 42.4905 134.282 42.6635 133.551 42.6635C132.758 42.6635 132.05 42.471 131.425 42.0878C130.802 41.7046 130.327 41.1819 130.006 40.5178C129.685 39.8556 129.524 39.1543 129.524 38.4135ZM130.677 38.4329C130.677 39.449 130.949 40.2487 131.494 40.8322C132.038 41.4158 132.722 41.7086 133.545 41.7086C134.383 41.7086 135.071 41.4138 135.615 40.8243C136.155 40.2349 136.426 39.3981 136.426 38.3132C136.426 37.6273 136.31 37.0283 136.079 36.5175C135.847 36.0062 135.509 35.6095 135.064 35.3282C134.617 35.0473 134.117 34.9063 133.563 34.9063C132.775 34.9063 132.097 35.1773 131.528 35.7197C130.96 36.2618 130.677 37.1658 130.677 38.4329Z" fill="#254AA5"></path><path d="M139.4 42.522V34.0806H141.07L143.06 40.0559C143.244 40.6122 143.378 41.0286 143.462 41.3059C143.558 40.9993 143.709 40.5474 143.913 39.952L145.939 34.0806H147.43V42.522H146.361V35.4602L143.902 42.522H142.9L140.47 35.3306V42.522H139.4Z" fill="#254AA5"></path><path d="M149.29 38.4135C149.29 37.0145 149.666 35.9181 150.417 35.1263C151.167 34.3342 152.135 33.9394 153.322 33.9394C154.1 33.9394 154.8 34.126 155.424 34.4973C156.048 34.8687 156.524 35.3875 156.851 36.0536C157.179 36.7177 157.343 37.4723 157.343 38.3151C157.343 39.1698 157.171 39.9362 156.826 40.6102C156.481 41.2862 155.993 41.797 155.362 42.1428C154.729 42.4905 154.048 42.6635 153.317 42.6635C152.523 42.6635 151.816 42.471 151.19 42.0878C150.567 41.7046 150.093 41.1819 149.772 40.5178C149.45 39.8556 149.29 39.1543 149.29 38.4135ZM150.442 38.4329C150.442 39.449 150.714 40.2487 151.259 40.8322C151.804 41.4158 152.488 41.7086 153.311 41.7086C154.15 41.7086 154.837 41.4138 155.38 40.8243C155.921 40.2349 156.191 39.3981 156.191 38.3132C156.191 37.6273 156.075 37.0283 155.844 36.5175C155.613 36.0062 155.274 35.6095 154.829 35.3282C154.382 35.0473 153.883 34.9063 153.328 34.9063C152.541 34.9063 151.863 35.1773 151.294 35.7197C150.726 36.2618 150.442 37.1658 150.442 38.4329Z" fill="#254AA5"></path><path d="M159.267 34.0806H164.523V42.522H163.406V35.0711H160.384V39.4194C160.384 40.3039 160.343 40.9503 160.261 41.3609C160.179 41.7734 160.005 42.0918 159.739 42.3217C159.475 42.5497 159.138 42.6635 158.732 42.6635C158.485 42.6635 158.19 42.6125 157.845 42.5102L158.045 41.5201C158.227 41.6141 158.384 41.6615 158.513 41.6615C158.764 41.6615 158.954 41.5671 159.079 41.3766C159.205 41.1862 159.267 40.7382 159.267 40.0306V34.0806Z" fill="#254AA5"></path><path d="M166.82 34.0806H167.936V37.6766H169.941C170.878 37.6766 171.555 37.7865 171.977 38.005C172.396 38.225 172.698 38.5234 172.882 38.8987C173.064 39.276 173.157 39.6648 173.157 40.0638C173.157 40.7181 172.935 41.2921 172.49 41.7832C172.047 42.2763 171.223 42.522 170.013 42.522H166.82V34.0806ZM167.936 41.5671H169.971C170.795 41.5671 171.333 41.4197 171.583 41.127C171.832 40.8342 171.958 40.4786 171.958 40.0638C171.958 39.728 171.867 39.4411 171.685 39.2052C171.505 38.9694 171.261 38.8161 170.96 38.7474C170.658 38.6786 170.147 38.6434 169.426 38.6434H167.936V41.5671Z" fill="#254AA5"></path><path d="M174.924 34.0806H176.04V41.5316H180.414V34.0806H181.531V41.5316H182.295V44.8681H181.308V42.522H174.924V34.0806Z" fill="#254AA5"></path><path d="M190.665 42.522V34.0806H186.933C186.184 34.0806 185.615 34.1575 185.225 34.3085C184.835 34.4599 184.523 34.7273 184.291 35.1105C184.057 35.4937 183.94 35.9181 183.94 36.3819C183.94 36.9809 184.134 37.4861 184.52 37.8967C184.905 38.3072 185.501 38.5667 186.309 38.6786C186.013 38.82 185.789 38.9618 185.636 39.0994C185.311 39.3981 185.004 39.773 184.716 40.223L183.259 42.522H184.651L185.764 40.7655C186.087 40.2566 186.356 39.8694 186.566 39.6003C186.777 39.3309 186.965 39.1444 187.132 39.0362C187.296 38.9303 187.467 38.8556 187.639 38.8122C187.765 38.7869 187.971 38.773 188.259 38.773H189.548V42.522H190.665ZM189.548 37.8062H187.157C186.648 37.8062 186.252 37.7533 185.966 37.6471C185.68 37.5427 185.462 37.374 185.315 37.1401C185.167 36.9082 185.092 36.6569 185.092 36.3836C185.092 35.9848 185.235 35.6546 185.523 35.3974C185.811 35.1398 186.266 35.0122 186.886 35.0122H189.548V37.8062Z" fill="#254AA5"></path><path d="M49.3679 18.551V10.1099H50.4846V13.5875H54.8348V10.1099H55.9518V18.551H54.8348V14.5779H50.4846V18.551H49.3679Z" stroke="#254AA5" stroke-width="0.288" stroke-miterlimit="22.9256"></path><path d="M57.302 18.551L60.5313 10.1099H61.7558L65.1833 18.551H63.9154L62.9414 15.9928H59.3965L58.4836 18.551H57.302ZM59.724 15.0852H62.5927L61.7149 12.7448C61.4504 12.0335 61.2504 11.4461 61.1112 10.9822C60.9957 11.5326 60.841 12.0727 60.6471 12.6072L59.724 15.0852Z" stroke="#254AA5" stroke-width="0.288" stroke-miterlimit="22.9256"></path><path d="M66.5039 10.1099H67.6209V17.5608H71.9944V10.1099H73.1114V17.5608H73.8757V20.897H72.888V18.551H66.5039V10.1099Z" stroke="#254AA5" stroke-width="0.288" stroke-miterlimit="22.9256"></path><path d="M75.5725 18.551V10.1099H76.6894V18.551H75.5725Z" stroke="#254AA5" stroke-width="0.288" stroke-miterlimit="22.9256"></path><path d="M78.5159 14.4424C78.5159 13.0434 78.8918 11.947 79.6424 11.1553C80.3926 10.3631 81.361 9.9684 82.5482 9.9684C83.3264 9.9684 84.0262 10.1549 84.651 10.5266C85.2741 10.8977 85.7503 11.4164 86.0769 12.0825C86.4044 12.7467 86.569 13.5013 86.569 14.3441C86.569 15.199 86.3969 15.9651 86.0517 16.6395C85.7066 17.3151 85.2195 17.826 84.588 18.1717C83.9552 18.5197 83.2735 18.6928 82.5423 18.6928C81.7491 18.6928 81.0415 18.4999 80.4162 18.1168C79.7933 17.7339 79.3193 17.2108 78.9978 16.547C78.6763 15.8849 78.5159 15.1832 78.5159 14.4424V14.4424ZM79.668 14.4621C79.668 15.478 79.9402 16.2776 80.4848 16.8612C81.0297 17.445 81.7134 17.7375 82.5367 17.7375C83.3752 17.7375 84.0631 17.4428 84.6056 16.8533C85.1464 16.2641 85.4169 15.4269 85.4169 14.342C85.4169 13.6566 85.3018 13.0572 85.07 12.5463C84.8391 12.0355 84.4998 11.6385 84.0556 11.3575C83.6084 11.0763 83.1089 10.9351 82.5541 10.9351C81.7665 10.9351 81.0887 11.2062 80.5203 11.7487C79.9517 12.2908 79.668 13.1947 79.668 14.4621V14.4621Z" stroke="#254AA5" stroke-width="0.288" stroke-miterlimit="22.9256"></path><path d="M88.462 18.551V10.1099H89.579V13.5875H93.9291V10.1099H95.046V18.551H93.9291V14.5779H89.579V18.551H88.462Z" stroke="#254AA5" stroke-width="0.288" stroke-miterlimit="22.9256"></path><path d="M96.3964 18.551L99.6254 10.1099H100.85L104.278 18.551H103.01L102.036 15.9928H98.4908L97.578 18.551H96.3964ZM98.8183 15.0852H101.687L100.809 12.7448C100.544 12.0335 100.345 11.4461 100.206 10.9822C100.09 11.5326 99.9352 12.0727 99.7412 12.6072L98.8183 15.0852Z" stroke="#254AA5" stroke-width="0.288" stroke-miterlimit="22.9256"></path><path d="M106.043 10.1099H111.299V18.551H110.182V11.0999H107.16V15.4483C107.16 16.3329 107.119 16.9793 107.037 17.3898C106.954 17.8026 106.78 18.1207 106.515 18.3506C106.251 18.5786 105.914 18.6928 105.508 18.6928C105.261 18.6928 104.965 18.6414 104.62 18.5394L104.82 17.549C105.003 17.6434 105.16 17.6904 105.289 17.6904C105.539 17.6904 105.73 17.596 105.855 17.4055C105.98 17.2151 106.043 16.7671 106.043 16.0595V10.1099Z" stroke="#254AA5" stroke-width="0.288" stroke-miterlimit="22.9256"></path><path d="M113.595 10.1099H114.711V13.7056H116.716C117.653 13.7056 118.331 13.8158 118.752 14.0339C119.172 14.254 119.474 14.5526 119.658 14.9277C119.84 15.3053 119.932 15.6941 119.932 16.0928C119.932 16.747 119.711 17.321 119.266 17.8122C118.823 18.3056 117.998 18.551 116.789 18.551H113.595V10.1099ZM114.711 17.596H116.746C117.571 17.596 118.108 17.4487 118.359 17.1562C118.607 16.8632 118.733 16.5075 118.733 16.0928C118.733 15.7569 118.642 15.4701 118.46 15.2342C118.281 14.9983 118.037 14.8451 117.736 14.7763C117.434 14.7075 116.923 14.6723 116.201 14.6723H114.711V17.596Z" stroke="#254AA5" stroke-width="0.288" stroke-miterlimit="22.9256"></path><path d="M121.723 18.551V10.1099H122.84V13.5875H127.19V10.1099H128.307V18.551H127.19V14.5779H122.84V18.551H121.723Z" stroke="#254AA5" stroke-width="0.288" stroke-miterlimit="22.9256"></path><path d="M130.604 10.1099H131.615V16.7944L136.096 10.1099H137.199V18.551H136.188V11.8842L131.718 18.551H130.604V10.1099Z" stroke="#254AA5" stroke-width="0.288" stroke-miterlimit="22.9256"></path><path d="M139.467 10.1099H140.478V16.7944L144.959 10.1099H146.063V18.551H145.051V11.8842L140.581 18.551H139.467V10.1099ZM143.664 8.08228H144.37C144.312 8.56742 144.136 8.94081 143.842 9.20001C143.548 9.46148 143.159 9.59117 142.671 9.59117C142.18 9.59117 141.789 9.46148 141.497 9.20397C141.204 8.94443 141.028 8.57138 140.972 8.08228H141.677C141.73 8.34738 141.838 8.54569 141.996 8.67538C142.155 8.80725 142.37 8.87201 142.639 8.87201C142.95 8.87201 143.185 8.80885 143.344 8.68127C143.503 8.55563 143.61 8.35529 143.664 8.08228V8.08228Z" stroke="#254AA5" stroke-width="0.288" stroke-miterlimit="22.9256"></path><path d="M49.2975 30.5365V22.0951H50.9668L52.9577 28.0704C53.1418 28.6266 53.2753 29.0431 53.3596 29.3204C53.4554 29.0138 53.6063 28.5619 53.81 27.9665L55.8364 22.0951H57.3277V30.5365H56.2575V23.4747L53.8005 30.5365H52.7973L50.3675 23.3451V30.5365H49.2975Z" stroke="#254AA5" stroke-width="0.288" stroke-miterlimit="22.9256"></path><path d="M59.5518 30.5365V22.0951H65.6301V23.0856H60.6688V25.6792H65.3126V26.6694H60.6688V29.546H65.8299V30.5365H59.5518Z" stroke="#254AA5" stroke-width="0.288" stroke-miterlimit="22.9256"></path><path d="M68.5477 22.0951H73.6737V29.546H74.4263V32.5053H73.4385V30.5365H67.8661V32.5053H66.8783V29.546H67.5248C68.2069 28.5204 68.5477 26.4477 68.5477 23.3293V22.0951ZM72.557 23.0856H69.6178V23.5177C69.6178 24.2371 69.5529 25.2217 69.4236 26.4691C69.2963 27.7171 69.0418 28.7427 68.6652 29.546H72.557V23.0856Z" stroke="#254AA5" stroke-width="0.288" stroke-miterlimit="22.9256"></path><path d="M76.1819 22.0951H77.1929V28.78L81.6744 22.0951H82.7775V30.5365H81.7665V23.8697L77.2966 30.5365H76.1819V22.0951Z" stroke="#254AA5" stroke-width="0.288" stroke-miterlimit="22.9256"></path><path d="M91.0292 30.5365H89.9123V27.1375C88.913 27.5085 88.0371 27.6954 87.2863 27.6954C86.7001 27.6954 86.1836 27.5579 85.7369 27.2829C85.2876 27.0095 84.9878 26.6599 84.8366 26.2371C84.6863 25.8152 84.6099 25.2628 84.6099 24.5789V22.0951H85.7268V24.475C85.7268 25.3964 85.8931 26.0036 86.2281 26.2944C86.5632 26.5832 86.9672 26.7286 87.4374 26.7286C88.2235 26.7286 89.0482 26.5539 89.9123 26.204V22.0951H91.0292V30.5365Z" stroke="#254AA5" stroke-width="0.288" stroke-miterlimit="22.9256"></path><path d="M93.3176 30.5365V22.0951H94.4346V25.5731H98.7847V22.0951H99.9016V30.5365H98.7847V26.5635H94.4346V30.5365H93.3176Z" stroke="#254AA5" stroke-width="0.288" stroke-miterlimit="22.9256"></path><path d="M102.198 22.0951H103.21V28.78L107.692 22.0951H108.794V30.5365H107.783V23.8697L103.314 30.5365H102.198V22.0951Z" stroke="#254AA5" stroke-width="0.288" stroke-miterlimit="22.9256"></path><path d="M111.062 22.0951H112.073V28.78L116.554 22.0951H117.657V30.5365H116.646V23.8697L112.176 30.5365H111.062V22.0951ZM115.259 20.0678H115.964C115.907 20.5529 115.731 20.9263 115.437 21.1855C115.143 21.4471 114.753 21.5767 114.265 21.5767C113.775 21.5767 113.384 21.4471 113.091 21.1895C112.799 20.9299 112.623 20.5566 112.567 20.0678H113.272C113.325 20.3329 113.432 20.5313 113.591 20.6609C113.75 20.7924 113.966 20.8576 114.234 20.8576C114.545 20.8576 114.78 20.7944 114.939 20.6668C115.098 20.5411 115.206 20.3408 115.259 20.0678V20.0678Z" stroke="#254AA5" stroke-width="0.288" stroke-miterlimit="22.9256"></path><path d="M122.315 22.0951H123.436L126.193 27.2845L128.59 22.0951H129.687L126.534 28.6621C126.14 29.4835 125.817 30.0217 125.564 30.2754C125.311 30.5286 124.951 30.6546 124.48 30.6546C124.194 30.6546 123.843 30.5875 123.426 30.454V29.499C123.724 29.672 124.039 29.7586 124.372 29.7586C124.643 29.7586 124.876 29.6701 125.074 29.4951C125.27 29.3204 125.488 28.9213 125.724 28.2983L122.315 22.0951Z" stroke="#254AA5" stroke-width="0.288" stroke-miterlimit="22.9256"></path><path d="M131.096 30.5365V22.0951H132.213V25.5731H136.562V22.0951H137.68V30.5365H136.562V26.5635H132.213V30.5365H131.096Z" stroke="#254AA5" stroke-width="0.288" stroke-miterlimit="22.9256"></path><path d="M139.935 30.5365V22.0951H141.052V30.5365H139.935Z" stroke="#254AA5" stroke-width="0.288" stroke-miterlimit="22.9256"></path><path d="M143.172 30.5365V22.0951H146.33C146.974 22.0951 147.488 22.1796 147.879 22.351C148.267 22.5217 148.57 22.7852 148.79 23.1408C149.011 23.4944 149.121 23.8658 149.121 24.2546C149.121 24.6142 149.024 24.9543 148.829 25.2727C148.636 25.5908 148.342 25.8483 147.947 26.0447C148.457 26.1941 148.849 26.4493 149.121 26.8112C149.396 27.1707 149.532 27.5971 149.532 28.0885C149.532 28.4852 149.448 28.8526 149.282 29.1928C149.115 29.5325 148.909 29.7938 148.664 29.9786C148.42 30.1615 148.112 30.3006 147.744 30.395C147.373 30.4894 146.921 30.5365 146.383 30.5365H143.172ZM144.289 25.644H146.109C146.603 25.644 146.958 25.6105 147.172 25.5457C147.456 25.4612 147.669 25.3197 147.813 25.123C147.955 24.9267 148.028 24.6813 148.028 24.3845C148.028 24.1033 147.961 23.8559 147.826 23.6438C147.692 23.4296 147.5 23.2819 147.252 23.2036C147.003 23.125 146.576 23.0856 145.973 23.0856H144.289V25.644ZM144.289 29.546H146.386C146.746 29.546 146.999 29.5325 147.146 29.5049C147.4 29.4599 147.616 29.3832 147.788 29.275C147.961 29.1671 148.102 29.0099 148.214 28.8036C148.326 28.5974 148.38 28.3592 148.38 28.0904C148.38 27.774 148.3 27.5006 148.138 27.2671C147.977 27.0333 147.754 26.8701 147.467 26.7757C147.183 26.6816 146.771 26.6342 146.236 26.6342H144.289V29.546Z" stroke="#254AA5" stroke-width="0.288" stroke-miterlimit="22.9256"></path><path d="M151.499 30.5365V22.0951H157.577V23.0856H152.615V25.6792H157.259V26.6694H152.615V29.546H157.776V30.5365H151.499Z" stroke="#254AA5" stroke-width="0.288" stroke-miterlimit="22.9256"></path><path d="M159.73 30.5365V22.0951H162.908C163.466 22.0951 163.894 22.123 164.19 22.176C164.603 22.2447 164.95 22.3763 165.231 22.5688C165.51 22.7635 165.736 23.0345 165.907 23.3822C166.076 23.7299 166.161 24.1132 166.161 24.5319C166.161 25.2471 165.934 25.854 165.477 26.3493C165.022 26.8464 164.198 27.0941 163.006 27.0941H160.847V30.5365H159.73ZM160.847 26.1039H163.022C163.743 26.1039 164.252 25.9701 164.556 25.701C164.858 25.4319 165.009 25.0546 165.009 24.5651C165.009 24.2135 164.921 23.9108 164.742 23.6595C164.564 23.4079 164.329 23.2408 164.039 23.1602C163.851 23.1112 163.504 23.0856 163 23.0856H160.847V26.1039Z" stroke="#254AA5" stroke-width="0.288" stroke-miterlimit="22.9256"></path><path d="M173.436 27.5753L174.553 27.8582C174.32 28.776 173.901 29.4737 173.295 29.9549C172.69 30.4362 171.949 30.6783 171.073 30.6783C170.168 30.6783 169.431 30.4934 168.863 30.122C168.294 29.7526 167.863 29.2161 167.568 28.5148C167.271 27.8112 167.123 27.0585 167.123 26.253C167.123 25.3747 167.29 24.6086 167.624 23.9539C167.959 23.2997 168.436 22.8026 169.053 22.4628C169.67 22.123 170.35 21.9539 171.091 21.9539C171.934 21.9539 172.641 22.1681 173.213 22.5983C173.787 23.0286 174.187 23.6319 174.412 24.4099L173.319 24.6694C173.125 24.0563 172.841 23.6083 172.471 23.3293C172.1 23.0483 171.633 22.9085 171.071 22.9085C170.427 22.9085 169.886 23.0642 169.453 23.3743C169.02 23.6849 168.714 24.1033 168.54 24.6263C168.363 25.1507 168.275 25.6911 168.275 26.2473C168.275 26.9645 168.379 27.5912 168.587 28.1256C168.794 28.6621 169.117 29.0609 169.557 29.326C169.996 29.5914 170.47 29.723 170.981 29.723C171.604 29.723 172.13 29.5424 172.56 29.1826C172.991 28.8214 173.284 28.2868 173.436 27.5753V27.5753Z" stroke="#254AA5" stroke-width="0.288" stroke-miterlimit="22.9256"></path><path d="M176.368 22.0951H177.379V28.78L181.86 22.0951H182.964V30.5365H181.953V23.8697L177.482 30.5365H176.368V22.0951Z" stroke="#254AA5" stroke-width="0.288" stroke-miterlimit="22.9256"></path><path d="M187.348 30.5365V23.0856H184.573V22.0951H191.238V23.0856H188.464V30.5365H187.348Z" stroke="#254AA5" stroke-width="0.288" stroke-miterlimit="22.9256"></path><path d="M192.825 30.5365V22.0951H198.905V23.0856H193.942V25.6792H198.586V26.6694H193.942V29.546H199.104V30.5365H192.825Z" stroke="#254AA5" stroke-width="0.288" stroke-miterlimit="22.9256"></path><path d="M203.198 30.5365V23.0856H200.423V22.0951H207.089V23.0856H204.315V30.5365H203.198Z" stroke="#254AA5" stroke-width="0.288" stroke-miterlimit="22.9256"></path><path d="M48.9862 35.2595V34.0806H50.0205V35.2595H48.9862ZM48.9862 42.522V36.4033H50.0205V42.522H48.9862Z" stroke="#254AA5" stroke-width="0.288" stroke-miterlimit="22.9256"></path><path d="M51.6334 36.4033H53.2244L54.8371 41.3L56.6223 36.4033H58.0998V42.522H57.0652V37.596L55.2681 42.522H54.3433L52.6444 37.3602V42.522H51.6334V36.4033Z" stroke="#254AA5" stroke-width="0.288" stroke-miterlimit="22.9256"></path><path d="M63.8429 40.5414L64.913 40.6829C64.7463 41.3059 64.4347 41.7911 63.9803 42.1349C63.5256 42.4789 62.9457 42.6516 62.2384 42.6516C61.3487 42.6516 60.6431 42.3766 60.1219 41.8266C59.6006 41.2783 59.3401 40.5059 59.3401 39.5138C59.3401 38.4882 59.6025 37.6904 60.1297 37.1244C60.6569 36.5565 61.3409 36.2737 62.1814 36.2737C62.9945 36.2737 63.6588 36.5506 64.1745 37.1069C64.6896 37.6628 64.9484 38.445 64.9484 39.4526C64.9484 39.5138 64.9464 39.6059 64.9424 39.728H60.3981C60.4374 40.398 60.6254 40.9128 60.9666 41.2684C61.3058 41.624 61.7309 41.803 62.2384 41.803C62.6163 41.803 62.9398 41.7026 63.2062 41.5023C63.4748 41.3016 63.6864 40.9816 63.8429 40.5414V40.5414ZM60.4571 38.8792H63.855C63.8097 38.3641 63.6785 37.9793 63.465 37.7217C63.1375 37.3227 62.7104 37.1224 62.1872 37.1224C61.7132 37.1224 61.3153 37.2816 60.9921 37.6C60.6707 37.9184 60.4925 38.3448 60.4571 38.8792Z" stroke="#254AA5" stroke-width="0.288" stroke-miterlimit="22.9256"></path><path d="M66.2202 36.4033H67.2549V38.9496H70.1237V36.4033H71.1583V42.522H70.1237V39.8105H67.2549V42.522H66.2202V36.4033Z" stroke="#254AA5" stroke-width="0.288" stroke-miterlimit="22.9256"></path><path d="M72.7123 35.2595V34.0806H73.7466V35.2595H72.7123ZM72.7123 42.522V36.4033H73.7466V42.522H72.7123Z" stroke="#254AA5" stroke-width="0.288" stroke-miterlimit="22.9256"></path><path d="M78.3792 38.4135C78.3792 37.0145 78.7555 35.9181 79.506 35.1263C80.2563 34.3342 81.2243 33.9394 82.4118 33.9394C83.1896 33.9394 83.8894 34.126 84.5142 34.4973C85.1373 34.8687 85.6135 35.3875 85.941 36.0536C86.2685 36.7177 86.4322 37.4723 86.4322 38.3151C86.4322 39.1698 86.2601 39.9362 85.9149 40.6102C85.5706 41.2862 85.0827 41.797 84.452 42.1428C83.8188 42.4905 83.1368 42.6635 82.406 42.6635C81.6123 42.6635 80.9048 42.471 80.2799 42.0878C79.6569 41.7046 79.1826 41.1819 78.8611 40.5178C78.5399 39.8556 78.3792 39.1543 78.3792 38.4135V38.4135ZM79.5313 38.4329C79.5313 39.449 79.8035 40.2487 80.3485 40.8322C80.8933 41.4158 81.577 41.7086 82.4 41.7086C83.2389 41.7086 83.9264 41.4138 84.4697 40.8243C85.0096 40.2349 85.2809 39.3981 85.2809 38.3132C85.2809 37.6273 85.165 37.0283 84.9341 36.5175C84.7023 36.0062 84.3638 35.6095 83.9185 35.3282C83.4717 35.0473 82.9721 34.9063 82.4177 34.9063C81.6301 34.9063 80.952 35.1773 80.3836 35.7197C79.8154 36.2618 79.5313 37.1658 79.5313 38.4329V38.4329Z" stroke="#254AA5" stroke-width="0.288" stroke-miterlimit="22.9256"></path><path d="M88.0295 42.522V41.3431H89.2052V42.522H88.0295Z" stroke="#254AA5" stroke-width="0.288" stroke-miterlimit="22.9256"></path><path d="M90.7908 38.4135C90.7908 37.0145 91.167 35.9181 91.9178 35.1263C92.6677 34.3342 93.636 33.9394 94.8235 33.9394C95.6011 33.9394 96.3006 34.126 96.9255 34.4973C97.5494 34.8687 98.0247 35.3875 98.3523 36.0536C98.6798 36.7177 98.8444 37.4723 98.8444 38.3151C98.8444 39.1698 98.6722 39.9362 98.3271 40.6102C97.9819 41.2862 97.494 41.797 96.8633 42.1428C96.2301 42.4905 95.5482 42.6635 94.8176 42.6635C94.024 42.6635 93.316 42.471 92.6912 42.0878C92.0681 41.7046 91.5945 41.1819 91.2728 40.5178C90.9512 39.8556 90.7908 39.1543 90.7908 38.4135V38.4135ZM91.943 38.4329C91.943 39.449 92.2151 40.2487 92.7601 40.8322C93.3051 41.4158 93.9887 41.7086 94.8117 41.7086C95.6506 41.7086 96.3376 41.4138 96.8809 40.8243C97.4218 40.2349 97.6922 39.3981 97.6922 38.3132C97.6922 37.6273 97.5763 37.0283 97.3454 36.5175C97.1144 36.0062 96.7751 35.6095 96.33 35.3282C95.8833 35.0473 95.3836 34.9063 94.8293 34.9063C94.0416 34.9063 93.3639 35.1773 92.7954 35.7197C92.2268 36.2618 91.943 37.1658 91.943 38.4329V38.4329Z" stroke="#254AA5" stroke-width="0.288" stroke-miterlimit="22.9256"></path><path d="M100.441 42.522V41.3431H101.617V42.522H100.441Z" stroke="#254AA5" stroke-width="0.288" stroke-miterlimit="22.9256"></path><path d="M107.062 34.0806H112.529V35.0711H108.179V37.6766H110.19C110.932 37.6766 111.522 37.747 111.961 37.8908C112.4 38.0322 112.751 38.2997 113.015 38.6944C113.279 39.0872 113.411 39.5451 113.411 40.0678C113.411 40.4944 113.317 40.8931 113.127 41.2628C112.937 41.6339 112.655 41.9365 112.278 42.1704C111.904 42.4043 111.263 42.522 110.36 42.522H107.062V34.0806ZM108.179 41.5671H110.407C111.009 41.5671 111.46 41.4454 111.761 41.1997C112.061 40.9539 112.212 40.5865 112.212 40.0974C112.212 39.7477 112.126 39.4569 111.953 39.223C111.78 38.9891 111.542 38.8338 111.236 38.7572C110.928 38.6806 110.405 38.6434 109.667 38.6434H108.179V41.5671Z" stroke="#254AA5" stroke-width="0.288" stroke-miterlimit="22.9256"></path><path d="M114.26 38.4135C114.26 37.0145 114.636 35.9181 115.387 35.1263C116.136 34.3342 117.105 33.9394 118.292 33.9394C119.071 33.9394 119.769 34.126 120.395 34.4973C121.018 34.8687 121.493 35.3875 121.821 36.0536C122.149 36.7177 122.313 37.4723 122.313 38.3151C122.313 39.1698 122.141 39.9362 121.796 40.6102C121.451 41.2862 120.963 41.797 120.332 42.1428C119.699 42.4905 119.017 42.6635 118.286 42.6635C117.493 42.6635 116.786 42.471 116.16 42.0878C115.538 41.7046 115.063 41.1819 114.742 40.5178C114.42 39.8556 114.26 39.1543 114.26 38.4135V38.4135ZM115.412 38.4329C115.412 39.449 115.685 40.2487 116.229 40.8322C116.774 41.4158 117.457 41.7086 118.28 41.7086C119.119 41.7086 119.807 41.4138 120.35 40.8243C120.891 40.2349 121.161 39.3981 121.161 38.3132C121.161 37.6273 121.045 37.0283 120.814 36.5175C120.583 36.0062 120.244 35.6095 119.8 35.3282C119.352 35.0473 118.852 34.9063 118.298 34.9063C117.51 34.9063 116.833 35.1773 116.264 35.7197C115.696 36.2618 115.412 37.1658 115.412 38.4329V38.4329Z" stroke="#254AA5" stroke-width="0.288" stroke-miterlimit="22.9256"></path><path d="M124.183 34.0806H129.626V35.0711H125.3V42.522H124.183V34.0806Z" stroke="#254AA5" stroke-width="0.288" stroke-miterlimit="22.9256"></path><path d="M129.524 38.4135C129.524 37.0145 129.901 35.9181 130.651 35.1263C131.401 34.3342 132.37 33.9394 133.557 33.9394C134.335 33.9394 135.034 34.126 135.659 34.4973C136.282 34.8687 136.758 35.3875 137.086 36.0536C137.413 36.7177 137.577 37.4723 137.577 38.3151C137.577 39.1698 137.405 39.9362 137.061 40.6102C136.716 41.2862 136.228 41.797 135.596 42.1428C134.964 42.4905 134.282 42.6635 133.551 42.6635C132.758 42.6635 132.05 42.471 131.425 42.0878C130.802 41.7046 130.327 41.1819 130.006 40.5178C129.685 39.8556 129.524 39.1543 129.524 38.4135V38.4135ZM130.677 38.4329C130.677 39.449 130.949 40.2487 131.494 40.8322C132.038 41.4158 132.722 41.7086 133.545 41.7086C134.383 41.7086 135.071 41.4138 135.615 40.8243C136.155 40.2349 136.426 39.3981 136.426 38.3132C136.426 37.6273 136.31 37.0283 136.079 36.5175C135.847 36.0062 135.509 35.6095 135.064 35.3282C134.617 35.0473 134.117 34.9063 133.563 34.9063C132.775 34.9063 132.097 35.1773 131.528 35.7197C130.96 36.2618 130.677 37.1658 130.677 38.4329V38.4329Z" stroke="#254AA5" stroke-width="0.288" stroke-miterlimit="22.9256"></path><path d="M139.4 42.522V34.0806H141.07L143.06 40.0559C143.244 40.6122 143.378 41.0286 143.462 41.3059C143.558 40.9993 143.709 40.5474 143.913 39.952L145.939 34.0806H147.43V42.522H146.361V35.4602L143.902 42.522H142.9L140.47 35.3306V42.522H139.4Z" stroke="#254AA5" stroke-width="0.288" stroke-miterlimit="22.9256"></path><path d="M149.29 38.4135C149.29 37.0145 149.666 35.9181 150.417 35.1263C151.167 34.3342 152.135 33.9394 153.322 33.9394C154.1 33.9394 154.8 34.126 155.424 34.4973C156.048 34.8687 156.524 35.3875 156.851 36.0536C157.179 36.7177 157.343 37.4723 157.343 38.3151C157.343 39.1698 157.171 39.9362 156.826 40.6102C156.481 41.2862 155.993 41.797 155.362 42.1428C154.729 42.4905 154.048 42.6635 153.317 42.6635C152.523 42.6635 151.816 42.471 151.19 42.0878C150.567 41.7046 150.093 41.1819 149.772 40.5178C149.45 39.8556 149.29 39.1543 149.29 38.4135V38.4135ZM150.442 38.4329C150.442 39.449 150.714 40.2487 151.259 40.8322C151.804 41.4158 152.488 41.7086 153.311 41.7086C154.15 41.7086 154.837 41.4138 155.38 40.8243C155.921 40.2349 156.191 39.3981 156.191 38.3132C156.191 37.6273 156.075 37.0283 155.844 36.5175C155.613 36.0062 155.274 35.6095 154.829 35.3282C154.382 35.0473 153.883 34.9063 153.328 34.9063C152.541 34.9063 151.863 35.1773 151.294 35.7197C150.726 36.2618 150.442 37.1658 150.442 38.4329V38.4329Z" stroke="#254AA5" stroke-width="0.288" stroke-miterlimit="22.9256"></path><path d="M159.267 34.0806H164.523V42.522H163.406V35.0711H160.384V39.4194C160.384 40.3039 160.343 40.9503 160.261 41.3609C160.179 41.7734 160.005 42.0918 159.739 42.3217C159.475 42.5497 159.138 42.6635 158.732 42.6635C158.485 42.6635 158.19 42.6125 157.845 42.5102L158.045 41.5201C158.227 41.6141 158.384 41.6615 158.513 41.6615C158.764 41.6615 158.954 41.5671 159.079 41.3766C159.205 41.1862 159.267 40.7382 159.267 40.0306V34.0806Z" stroke="#254AA5" stroke-width="0.288" stroke-miterlimit="22.9256"></path><path d="M166.82 34.0806H167.936V37.6766H169.941C170.878 37.6766 171.555 37.7865 171.977 38.005C172.396 38.225 172.698 38.5234 172.882 38.8987C173.064 39.276 173.157 39.6648 173.157 40.0638C173.157 40.7181 172.935 41.2921 172.49 41.7832C172.047 42.2763 171.223 42.522 170.013 42.522H166.82V34.0806ZM167.936 41.5671H169.971C170.795 41.5671 171.333 41.4197 171.583 41.127C171.832 40.8342 171.958 40.4786 171.958 40.0638C171.958 39.728 171.867 39.4411 171.685 39.2052C171.505 38.9694 171.261 38.8161 170.96 38.7474C170.658 38.6786 170.147 38.6434 169.426 38.6434H167.936V41.5671Z" stroke="#254AA5" stroke-width="0.288" stroke-miterlimit="22.9256"></path><path d="M174.924 34.0806H176.04V41.5316H180.414V34.0806H181.531V41.5316H182.295V44.8681H181.308V42.522H174.924V34.0806Z" stroke="#254AA5" stroke-width="0.288" stroke-miterlimit="22.9256"></path><path d="M190.665 42.522V34.0806H186.933C186.184 34.0806 185.615 34.1576 185.225 34.3085C184.835 34.4599 184.523 34.7273 184.291 35.1105C184.057 35.4937 183.94 35.9181 183.94 36.3819C183.94 36.9809 184.134 37.4861 184.52 37.8967C184.905 38.3072 185.501 38.5667 186.309 38.6786C186.013 38.82 185.789 38.9618 185.636 39.0994C185.311 39.3981 185.004 39.773 184.716 40.223L183.259 42.522H184.651L185.764 40.7655C186.087 40.2566 186.356 39.8694 186.566 39.6003C186.777 39.3309 186.965 39.1444 187.132 39.0362C187.296 38.9303 187.467 38.8556 187.639 38.8122C187.765 38.7869 187.971 38.773 188.259 38.773H189.548V42.522H190.665ZM189.548 37.8062H187.157C186.648 37.8062 186.252 37.7533 185.966 37.6471C185.68 37.5427 185.462 37.374 185.315 37.1401C185.167 36.9082 185.092 36.6569 185.092 36.3836C185.092 35.9848 185.235 35.6546 185.523 35.3974C185.811 35.1398 186.266 35.0122 186.886 35.0122H189.548V37.8062Z" stroke="#254AA5" stroke-width="0.288" stroke-miterlimit="22.9256"></path></svg> 