<?xml version="1.0" encoding="utf-8"?>
<!-- Generator: Adobe Illustrator 24.2.0, SVG Export Plug-In . SVG Version: 6.00 Build 0)  -->
<svg version="1.1" id="Layer_1" xmlns="http://www.w3.org/2000/svg" xmlns:xlink="http://www.w3.org/1999/xlink" x="0px" y="0px"
	 viewBox="0 0 127.2 111" style="enable-background:new 0 0 127.2 111;" xml:space="preserve">
<style type="text/css">
	.st0{fill:#E40C25;}
	.st1{fill:#FFFFFF;}
</style>
<g id="Layer_2_1_">
	<g id="Слой_1">
		<rect y="0" class="st0" width="127.2" height="111"/>
		<polygon class="st1" points="44.3,40.3 31.8,24.6 24.6,24.6 44.3,49.2 49.9,49.2 49.9,24.6 44.3,24.6 		"/>
		<rect x="56.9" y="24.6" class="st1" width="5.6" height="24.6"/>
		<path class="st1" d="M79,24.6h-9.4v24.6H79c9.1,0,13.8-5.5,13.8-12.3S88,24.6,79,24.6z M79,43.8h-3.7V30H79c5.1,0,7.7,3.1,7.7,6.9
			S84,43.8,79,43.8z"/>
		<rect x="97" y="24.6" class="st1" width="5.6" height="24.6"/>
		<path class="st1" d="M23.4,95.8l4.1-9.5h1l4.1,9.5h-1.2l-1.2-2.9h-4.3l-1.2,2.9H23.4z M28,87.8l-1.7,4h3.4L28,87.8z"/>
		<path class="st1" d="M33.7,95.8v-6h1H36c1.7,0,2.6,0.5,2.6,1.6c0,0.3-0.1,0.6-0.3,0.9s-0.6,0.4-0.9,0.5l0,0
			c0.9,0.2,1.4,0.7,1.4,1.4c0,1.2-0.9,1.8-2.8,1.8h-1.2L33.7,95.8z M36,90.5c-0.3,0-0.7,0-1.2,0v1.8h1.4c0.3,0,0.6-0.1,0.9-0.3
			c0.2-0.2,0.3-0.4,0.3-0.7C37.4,90.8,37,90.5,36,90.5z M36.1,93.1h-1.3V95c0.7,0,1.1,0,1.2,0c1,0,1.6-0.3,1.6-1
			S37.1,93.1,36.1,93.1z"/>
		<path class="st1" d="M39.7,90.8v-1h5.6v1.1H43v5h-1.1v-5L39.7,90.8z"/>
		<path class="st1" d="M46.7,95c-1.2-1.3-1.2-3.3,0-4.6c1.3-1.2,3.4-1.2,4.7,0c1.2,1.3,1.2,3.3,0,4.6C50,96.2,48,96.2,46.7,95z
			 M46.9,92.7c0,0.6,0.2,1.1,0.6,1.6c0.8,0.8,2.2,0.8,3,0c0.8-0.9,0.8-2.2,0-3.1c-0.8-0.8-2.2-0.8-3,0
			C47.1,91.6,46.9,92.2,46.9,92.7L46.9,92.7z"/>
		<path class="st1" d="M52.8,97.3v-2.5h0.8c0.3-0.4,0.5-0.9,0.6-1.3c0.2-0.7,0.3-1.4,0.3-2.1l0.1-1.6h4.2v5.1h1v2.5h-1v-1.5h-4.9
			v1.5L52.8,97.3L52.8,97.3z M55.5,91.7c-0.1,0.6-0.2,1.3-0.3,1.9c-0.1,0.4-0.3,0.8-0.5,1.2h3v-4.1h-2.1L55.5,91.7z"/>
		<path class="st1" d="M62,95.8h-1.1v-6H62v4.5l3.5-4.5h1.1v6.1h-1.1v-4.5L62,95.8z"/>
		<path class="st1" d="M73,95.8v-2.6h-3.4v2.6h-1.1v-6h1.1v2.5H73v-2.5h1.1v6.1L73,95.8z"/>
		<path class="st1" d="M76.4,91l-0.3-0.9c0.6-0.4,1.3-0.6,2-0.6c0.7-0.1,1.3,0.2,1.8,0.6c0.4,0.5,0.6,1.2,0.5,1.9v3.7h-1V95
			c-0.5,0.6-1.2,0.9-1.9,0.9c-1,0-1.8-0.7-1.9-1.7c0-0.1,0-0.1,0-0.2c0-0.6,0.2-1.1,0.6-1.4c0.5-0.4,1.1-0.5,1.7-0.5
			c0.5,0,1.1,0.1,1.5,0.4c0-0.5-0.1-1-0.3-1.5c-0.3-0.4-0.7-0.5-1.1-0.5C77.5,90.5,76.9,90.7,76.4,91z M77.9,94.9
			c0.6,0,1.2-0.3,1.6-0.8v-0.8c-0.4-0.3-0.9-0.4-1.4-0.4c-0.3,0-0.6,0.1-0.9,0.3c-0.2,0.2-0.4,0.4-0.4,0.7c0,0.3,0.1,0.5,0.3,0.7
			C77.3,94.8,77.6,94.9,77.9,94.9z"/>
		<path class="st1" d="M87,94.1l0.5,0.8c-0.3,0.3-0.6,0.6-1,0.8c-0.4,0.2-0.9,0.3-1.3,0.3c-0.9,0-1.7-0.3-2.4-0.9
			c-0.6-0.6-0.9-1.5-0.9-2.3s0.3-1.7,0.9-2.3c0.6-0.6,1.4-0.9,2.2-0.9c0.9-0.1,1.7,0.2,2.4,0.8l-0.5,0.9c-0.5-0.4-1.1-0.7-1.7-0.6
			c-0.6,0-1.1,0.2-1.5,0.6s-0.6,1-0.6,1.5c0,0.6,0.2,1.2,0.6,1.6s1,0.6,1.6,0.6C85.9,94.9,86.6,94.6,87,94.1z"/>
		<path class="st1" d="M88.1,90.8v-1h5.6v1.1h-2.2v5h-1.1v-5L88.1,90.8z"/>
		<path class="st1" d="M95,87.4c0-0.2,0.1-0.4,0.2-0.5s0.3-0.2,0.5-0.2s0.3,0.1,0.5,0.2c0.1,0.1,0.2,0.3,0.2,0.5
			c0,0.4-0.3,0.7-0.6,0.7l0,0c-0.2,0-0.4,0-0.5-0.2C95,87.8,94.9,87.6,95,87.4z M95.1,95.8v-6h1.1v6.1L95.1,95.8z"/>
		<path class="st1" d="M101.1,89.7h1.9v6.1h-1.1v-2h-1.2l-1.5,2h-1.3l1.8-2.3c-0.4-0.1-0.7-0.3-0.9-0.6c-0.3-0.3-0.4-0.8-0.4-1.2
			c0-0.6,0.2-1.1,0.6-1.5C99.7,89.9,100.4,89.7,101.1,89.7z M99.5,91.8c0,0.3,0.1,0.5,0.3,0.7c0.2,0.2,0.5,0.3,0.8,0.3h1.2v-2h-1
			c-0.4,0-0.7,0.1-1,0.3C99.7,91.2,99.5,91.5,99.5,91.8L99.5,91.8z"/>
		<rect y="73.2" class="st1" width="127.2" height="1.3"/>
	</g>
</g>
</svg>
