<svg width="558" height="386" viewBox="0 0 558 386" fill="none" xmlns="http://www.w3.org/2000/svg">
<g clip-path="url(#clip0_6_57)">
<path opacity="0.18" d="M241.652 20.2738C237.291 22.2936 233.007 24.4816 228.8 26.8839C179.61 54.8848 145.184 107.444 91.3271 124.902C76.746 129.631 61.0938 130.931 49.3126 141.275C40.8123 149.033 33.4148 157.918 27.3262 167.684C14.4524 187.921 5.90888 210.604 2.23378 234.305C-5.12564 280.208 5.17143 331.895 41.6931 363.339C69.1418 386.994 109.993 388.188 144.373 381.792C164.095 378.135 182.991 371.005 202.514 366.307C236.647 358.128 272.153 357.496 306.556 364.456C329.246 369.046 351.171 376.957 373.877 381.807C390.187 385.311 407.17 387.255 423.817 385.097C439.79 383.031 452.107 375.412 466.657 369.261C494.336 357.525 522.35 342.56 539.992 317.329C553.562 297.556 559.831 273.679 557.725 249.79C555.429 225.937 545.668 203.417 529.832 185.434C522.809 177.355 513.629 170.224 510.202 159.942C506.775 149.66 506.239 137.664 505.168 127.121C502.843 104.001 500.058 80.2234 488.797 59.9036C476.281 37.3192 454.111 21.146 429.922 12.0418C405.732 2.9377 379.584 0.336524 353.742 0.0305028C315.476 -0.352024 276.2 4.2383 241.652 20.2738Z" fill="#8CC5F9"/>
<path d="M496.906 221.896L470.896 240.257L355.409 321.399C346.54 327.79 337.303 333.656 327.747 338.965C319.959 343.172 315.506 351.205 306.081 353.347C301.401 354.161 296.609 354.078 291.959 353.103C284.357 351.865 276.877 349.966 269.606 347.426C268.718 347.12 267.448 346.936 267.051 347.793C266.653 348.65 268.795 348.558 268.045 347.977C200.341 338.796 135.652 314.314 68.5604 301.462C67.7809 301.317 67.0694 300.923 66.5332 300.339C65.997 299.756 65.665 299.013 65.5873 298.224C65.5096 297.435 65.6904 296.642 66.1025 295.965C66.5145 295.288 67.1355 294.763 67.8719 294.469C73.2729 292.266 79.1635 291.409 85.1153 290.246C95.8255 288.272 106.383 286.344 117.062 284.6C138.586 280.871 160.317 278.459 182.134 277.378C218.365 275.848 254.933 279.719 290.766 274.103C324.809 268.778 356.848 255.176 388.519 241.558C396.169 238.283 403.957 234.887 409.94 229.133C414.637 224.62 418.401 218.667 424.383 215.699C430.595 212.639 438.153 213.174 444.824 213.48C462.419 214.261 479.8 217.841 496.906 221.896Z" fill="url(#paint0_linear_6_57)"/>
<path d="M71.4981 278.678L222.726 212.884C226.001 211.24 229.698 210.626 233.329 211.124L420.374 227.022C423.954 227.527 423.312 242.92 420.374 245.383L309.906 339.424C306.579 342.361 302.596 344.458 298.292 345.539C293.987 346.62 289.486 346.653 285.166 345.636L72.8292 293.995C70.121 293.337 68.9582 279.933 71.4981 278.678Z" fill="#8CC5F9"/>
<path d="M71.4981 278.678L222.726 212.884C226.001 211.24 229.698 210.626 233.329 211.124L420.374 227.022C423.954 227.527 423.312 242.92 420.374 245.383L309.906 339.424C306.579 342.361 302.596 344.458 298.292 345.539C293.987 346.62 289.486 346.653 285.166 345.636L72.8292 293.995C70.121 293.337 68.9582 279.933 71.4981 278.678Z" fill="url(#paint1_linear_6_57)"/>
<path d="M420.42 234.474L309.952 328.514C306.628 331.456 302.646 333.557 298.341 334.641C294.035 335.724 289.533 335.759 285.212 334.741L72.8292 283.085C70.121 282.427 69.7691 278.143 72.2937 276.873L130.496 244.021L145.796 235.422L192.324 209.273C195.599 207.628 199.296 207.014 202.927 207.513L418.538 226.272C422.119 226.701 423.312 232.01 420.42 234.474Z" fill="#8CC5F9"/>
<path d="M202.912 212.639L399.994 241.787L339.329 291.057L137.075 250.127L202.912 212.639Z" fill="url(#paint2_linear_6_57)"/>
<path d="M402.381 247.112C401.8 248.872 399.887 249.775 398.158 250.463C385.554 255.192 372.703 259.237 359.663 262.582C347.285 265.994 334.372 269.437 321.734 267.172C320.147 266.759 318.501 266.625 316.868 266.774C314.175 267.264 312.186 269.452 310.09 271.181C299.64 279.78 284.37 277.822 271.059 275.404C271.635 271.016 271.921 266.594 271.916 262.169C236.313 262.808 200.72 260.382 165.533 254.916C157.883 253.738 137.213 252.804 131.995 246.454C131.35 245.754 130.833 244.946 130.465 244.067L145.765 235.468C146.459 235.498 147.146 235.606 147.816 235.789C188.527 247.079 230.84 251.475 273.002 248.795C274.089 243.302 268.412 236.432 272.727 232.79C274.147 231.78 275.867 231.279 277.608 231.367C284.067 231.116 290.489 232.462 296.305 235.285C299.747 236.968 302.991 239.171 306.709 240.12C310.347 240.842 314.079 240.961 317.756 240.472C341.229 238.715 364.782 238.265 388.305 239.125C392.176 239.263 396.23 239.492 399.52 241.527C401.448 242.69 403.116 244.955 402.381 247.112Z" fill="url(#paint3_linear_6_57)"/>
<path d="M182.287 262.337L263.501 278.755L221.502 313.014L137.075 294.071L182.287 262.337Z" fill="url(#paint4_linear_6_57)"/>
<path d="M141.68 300.008C142.511 301.676 143.686 303.149 145.129 304.328C146.572 305.507 148.249 306.366 150.05 306.848C156.017 308.286 190.794 317.191 190.794 317.191C190.794 317.191 196.455 317.864 199.592 314.131L141.68 300.008Z" fill="url(#paint5_linear_6_57)"/>
<path d="M196.731 207.421L419.166 239.079C420.796 239.306 422.451 238.902 423.794 237.95C425.136 236.997 426.064 235.567 426.387 233.953L458.12 73.7053C458.46 71.9951 458.435 70.2324 458.048 68.5322C457.661 66.832 456.92 65.2325 455.874 63.8379C454.827 62.4433 453.498 61.285 451.974 60.4384C450.45 59.5918 448.764 59.0759 447.027 58.9245L227.362 39.6604C224.129 39.3772 220.913 40.3719 218.405 42.4312C215.897 44.4906 214.295 47.4508 213.943 50.6772L196.731 207.421Z" fill="#8CC5F9"/>
<path d="M196.731 207.421L418.584 238.987C420.377 239.241 422.198 238.799 423.675 237.752C425.152 236.705 426.171 235.132 426.525 233.357L458.12 73.7053C458.46 71.9951 458.435 70.2324 458.048 68.5322C457.661 66.832 456.92 65.2325 455.874 63.8379C454.827 62.4433 453.498 61.285 451.974 60.4384C450.45 59.5918 448.764 59.0759 447.027 58.9245L227.362 39.6604C224.129 39.3772 220.913 40.3719 218.405 42.4312C215.897 44.4906 214.295 47.4508 213.943 50.6772L196.731 207.421Z" fill="url(#paint6_linear_6_57)"/>
<path d="M415.142 229.868L446.737 68.1816L222.726 47.4945L204.916 200.582L415.142 229.868Z" fill="white"/>
<path d="M396.72 97.5749L239.602 81.218L243.167 61.3267L400.331 77.6835C401.659 77.7696 402.954 78.1338 404.133 78.7525C405.311 79.3712 406.346 80.2306 407.172 81.275C407.997 82.3195 408.593 83.5256 408.922 84.8152C409.252 86.1049 409.306 87.4494 409.083 88.7615V88.7615C408.48 91.501 406.881 93.9192 404.597 95.5475C402.313 97.1758 399.506 97.8982 396.72 97.5749V97.5749Z" fill="#8CC5F9"/>
<path opacity="0.56" d="M239.602 81.2181L366.517 94.4536L370.082 74.501L243.167 61.2502L239.602 81.2181Z" fill="white"/>
<path d="M389.085 89.8098C391.768 88.7602 393.163 85.9124 392.199 83.4491C391.236 80.9858 388.28 79.8397 385.596 80.8893C382.913 81.9388 381.518 84.7866 382.481 87.2499C383.445 89.7133 386.401 90.8594 389.085 89.8098Z" stroke="white" stroke-width="1.04" stroke-miterlimit="10"/>
<path d="M390.6 93.6272C390.493 93.3671 389.162 89.7407 389.162 89.7407" stroke="white" stroke-width="1.04" stroke-miterlimit="10"/>
<path opacity="0.18" d="M395.205 126.371L234.859 109.204L235.7 106.572L396.032 123.74L395.205 126.371Z" fill="#8CC5F9"/>
<path opacity="0.18" d="M291.867 105.317L237.72 98.9061L238.822 94.1934L292.984 100.1L291.867 105.317Z" fill="#8CC5F9"/>
<path opacity="0.18" d="M393.216 136.975L232.87 119.807L233.696 117.176L394.043 134.343L393.216 136.975Z" fill="#8CC5F9"/>
<g opacity="0.66">
<path opacity="0.18" d="M283.253 147.671L229.106 141.275L230.208 136.547L284.37 142.453L283.253 147.671Z" fill="#8CC5F9"/>
<path opacity="0.18" d="M386.163 169.674L225.816 152.506L226.658 149.859L387.004 167.042L386.163 169.674Z" fill="#8CC5F9"/>
<path opacity="0.18" d="M382.506 181.945L222.16 164.777L223.001 162.145L383.332 179.313L382.506 181.945Z" fill="#8CC5F9"/>
</g>
<path opacity="0.18" d="M379.4 208.462L219.222 187.545L220.048 184.929L380.226 205.845L379.4 208.462Z" fill="#8CC5F9"/>
<path d="M290.521 193.008C290.521 193.008 126.655 247.265 104.256 198.562C81.8563 149.859 204.518 136.516 204.518 136.516C204.518 136.516 61.1857 150.792 93.3468 210.956C125.508 271.12 300.298 211.629 300.298 211.629L290.521 193.008Z" fill="white"/>
<path d="M290.904 190.758C290.972 192.988 291.581 195.167 292.678 197.108L296.718 205.738C297.579 207.885 298.789 209.876 300.298 211.629C301.481 212.824 302.928 213.724 304.523 214.255C306.118 214.787 307.815 214.936 309.478 214.689C310.263 214.638 311.021 214.386 311.68 213.957C312.339 213.528 312.877 212.937 313.242 212.241C313.93 210.451 312.768 208.538 311.834 206.87C309.325 202.387 308.254 197.277 307.061 192.289C306.143 188.402 304.276 182.924 299.533 182.373C295.341 181.884 291.148 186.673 290.904 190.758Z" fill="#8CC5F9"/>
<path d="M332.061 170.653C332.061 170.653 297.391 138.934 263.501 170.653C263.501 170.653 289.695 167.271 297.773 181.7L332.061 170.653Z" fill="#8CC5F9"/>
<path d="M346.229 199.648C346.229 199.648 344.577 246.623 298.202 248.612C298.202 248.612 318.964 232.285 314.328 216.403L346.229 199.648Z" fill="#8CC5F9"/>
<path d="M297.773 181.731C297.773 181.731 407.094 118.996 468.555 129.034C468.555 129.034 454.662 174.203 314.282 216.403L297.773 181.731Z" fill="white"/>
<path d="M468.631 129.003C468.631 129.003 454.739 174.172 314.359 216.372L309.356 205.861L297.773 181.731C297.773 181.731 394.808 125.974 457.431 127.963C461.183 128.065 464.925 128.412 468.631 129.003V129.003Z" fill="url(#paint7_linear_6_57)"/>
<path d="M468.631 129.003C458.916 141.749 425.377 165.236 356.435 190.284C352.538 191.712 348.524 193.14 344.393 194.568C333.53 198.322 321.851 202.086 309.356 205.86L297.789 181.731C297.789 181.731 309.738 174.555 328.007 165.435C337.646 160.615 349.045 155.26 361.377 150.134C395.787 135.828 437.495 123.204 468.631 129.003Z" fill="#8CC5F9"/>
<path d="M370.771 179.451C377.717 179.451 383.348 173.82 383.348 166.873C383.348 159.927 377.717 154.296 370.771 154.296C363.825 154.296 358.194 159.927 358.194 166.873C358.194 173.82 363.825 179.451 370.771 179.451Z" fill="#8CC5F9"/>
<path d="M370.771 175.014C375.503 175.014 379.339 171.177 379.339 166.445C379.339 161.713 375.503 157.876 370.771 157.876C366.039 157.876 362.203 161.713 362.203 166.445C362.203 171.177 366.039 175.014 370.771 175.014Z" fill="url(#paint8_linear_6_57)"/>
<path d="M353.971 124.092C353.382 124.072 352.795 124.021 352.212 123.939C352.043 124.26 352.808 125.469 352.977 125.561C353.057 125.63 353.161 125.669 353.267 125.669C353.374 125.669 353.477 125.63 353.558 125.561C353.626 125.464 353.672 125.355 353.696 125.239L353.971 124.076" fill="white"/>
</g>
<defs>
<linearGradient id="paint0_linear_6_57" x1="-163.774" y1="-72.0221" x2="985.074" y2="787.166" gradientUnits="userSpaceOnUse">
<stop offset="0.01"/>
<stop offset="0.08" stop-opacity="0.69"/>
<stop offset="0.21" stop-opacity="0.32"/>
<stop offset="1" stop-opacity="0"/>
</linearGradient>
<linearGradient id="paint1_linear_6_57" x1="59784.8" y1="21692.4" x2="64185.1" y2="58092.2" gradientUnits="userSpaceOnUse">
<stop offset="0.01"/>
<stop offset="0.08" stop-opacity="0.69"/>
<stop offset="0.21" stop-opacity="0.32"/>
<stop offset="1" stop-opacity="0"/>
</linearGradient>
<linearGradient id="paint2_linear_6_57" x1="49799.9" y1="5724.64" x2="48660.4" y2="31551.2" gradientUnits="userSpaceOnUse">
<stop offset="0.01"/>
<stop offset="0.08" stop-opacity="0.69"/>
<stop offset="0.21" stop-opacity="0.32"/>
<stop offset="1" stop-opacity="0"/>
</linearGradient>
<linearGradient id="paint3_linear_6_57" x1="49406.5" y1="5717.24" x2="49874.5" y2="18474" gradientUnits="userSpaceOnUse">
<stop offset="0.01"/>
<stop offset="0.08" stop-opacity="0.69"/>
<stop offset="0.21" stop-opacity="0.32"/>
<stop offset="1" stop-opacity="0"/>
</linearGradient>
<linearGradient id="paint4_linear_6_57" x1="18028.9" y1="6112.51" x2="17267.4" y2="18952.8" gradientUnits="userSpaceOnUse">
<stop offset="0.01"/>
<stop offset="0.08" stop-opacity="0.69"/>
<stop offset="0.21" stop-opacity="0.32"/>
<stop offset="1" stop-opacity="0"/>
</linearGradient>
<linearGradient id="paint5_linear_6_57" x1="8286.34" y1="4272.65" x2="8172.32" y2="5258.5" gradientUnits="userSpaceOnUse">
<stop offset="0.01"/>
<stop offset="0.08" stop-opacity="0.69"/>
<stop offset="0.21" stop-opacity="0.32"/>
<stop offset="1" stop-opacity="0"/>
</linearGradient>
<linearGradient id="paint6_linear_6_57" x1="59656.8" y1="6304.16" x2="72484.1" y2="153260" gradientUnits="userSpaceOnUse">
<stop offset="0.01"/>
<stop offset="0.08" stop-opacity="0.69"/>
<stop offset="0.21" stop-opacity="0.32"/>
<stop offset="1" stop-opacity="0"/>
</linearGradient>
<linearGradient id="paint7_linear_6_57" x1="46494.3" y1="10692.9" x2="47623.4" y2="21366.6" gradientUnits="userSpaceOnUse">
<stop offset="0.01"/>
<stop offset="0.08" stop-opacity="0.69"/>
<stop offset="0.21" stop-opacity="0.32"/>
<stop offset="1" stop-opacity="0"/>
</linearGradient>
<linearGradient id="paint8_linear_6_57" x1="3942.32" y1="1520.28" x2="6026.87" y2="3347.34" gradientUnits="userSpaceOnUse">
<stop offset="0.01"/>
<stop offset="0.08" stop-opacity="0.69"/>
<stop offset="0.21" stop-opacity="0.32"/>
<stop offset="1" stop-opacity="0"/>
</linearGradient>
<clipPath id="clip0_6_57">
<rect width="558" height="386" fill="white"/>
</clipPath>
</defs>
</svg>
